:version 1.10
:name ASF
:units
  mass 1
  length 1
  angle deg
:documentation
  ASF file generated by Kaydara
:root
  axis xyz
  order  tx ty tz rx ry rz
  position 0 0 0
  orientation 0 0 0
:bonedata
  begin
    id 1
    name RightUpLegDummy
    direction -0.718183 -0.695806 0.00816078
    length 4.904
    axis 0 0 0 xyz
  end
  begin
    id 2
    name RightUpLeg
    direction -0.0736652 -0.994202 0.0783343
    length 17.4976
    axis -2.72909 -3.00389 -4.00133 xyz
    dof rx ry rz
  end
  begin
    id 3
    name RightLeg
    direction -0.0389037 -0.994596 -0.0962598
    length 16.5821
    axis 3.95836 -18.5909 -4.46993 xyz
    dof rx ry rz
  end
  begin
    id 4
    name RightFoot
    direction -0.311643 -0.412678 0.855906
    length 3.77069
    axis -1.99483 -18.8351 -3.27644 xyz
    dof rx ry rz
  end
  begin
    id 5
    name RightToes
    direction -0.317852 0.0389852 0.947339
    length 3.85082
    axis -2.00228 -18.1713 -3.25211 xyz
    dof rx ry rz
  end
  begin
    id 6
    name SpineDummy
    direction 8.3039e-015 1 4.44677e-016
    length 4.6813
    axis 0 0 0 xyz
  end
  begin
    id 7
    name Spine
    direction -0.000262373 0.999988 0.00493267
    length 10.1015
    axis -0.00246081 0.00062579 0.0150362 xyz
    dof rx ry rz
  end
  begin
    id 8
    name Spine1
    direction 0 0 0
    length 0
    axis -0.00349562 0.000650293 0.0196666 xyz
    dof rx ry rz
  end
  begin
    id 9
    name HEadDummy
    direction -0.000343232 0.999999 0.00123745
    length 3.43865
    axis -0.00349562 0.000650293 0.0196666 xyz
  end
  begin
    id 10
    name HEad
    direction -0.0461221 0.980933 0.188796
    length 5.12695
    axis -0.00351404 -7.04812 0.0199272 xyz
    dof rx ry rz
  end
  begin
    id 11
    name LeftShoulder1Dummy
    direction 0.998904 -0.0399089 -0.0244534
    length 3.5433
    axis -0.00349562 0.000650293 0.0196666 xyz
  end
  begin
    id 12
    name LeftShoulder1
    direction 0.99951 1.64443e-005 0.0312999
    length 4.05031
    axis -0.00349562 0.000650293 0.0196666 xyz
    dof rx ry rz
  end
  begin
    id 13
    name LeftArm
    direction 0.984791 0.0515299 0.165927
    length 12.9126
    axis -64.823 -10.7743 5.20463 xyz
    dof rx ry rz
  end
  begin
    id 14
    name LeftForeArm
    direction 0.984968 0.0534808 0.16425
    length 10.8596
    axis -30.0462 -7.70601 1.87451 xyz
    dof rx ry rz
  end
  begin
    id 15
    name LeftHand
    direction 0.975871 0.0289682 0.216418
    length 6.62295
    axis -20.1348 -6.98077 1.86072 xyz
    dof rx ry rz
  end
  begin
    id 16
    name RightShoulderDummy
    direction -0.998877 -0.0405946 -0.0244307
    length 3.5433
    axis -0.00349562 0.000650293 0.0196666 xyz
  end
  begin
    id 17
    name RightShoulder
    direction -0.998933 -0.0249743 -0.0388558
    length 4.05031
    axis -0.0205316 -4.02113 1.41395 xyz
    dof rx ry rz
  end
  begin
    id 18
    name RightArm
    direction -0.997559 0.068664 0.0127103
    length 12.9638
    axis -67.3882 1.84188 -6.15987 xyz
    dof rx ry rz
  end
  begin
    id 19
    name RightForeArm
    direction -0.991508 0.0912848 0.0926241
    length 10.8312
    axis -22.1975 3.41087 -4.28711 xyz
    dof rx ry rz
  end
  begin
    id 20
    name RightHand
    direction -0.989262 0.0600788 0.133232
    length 6.57864
    axis -12.2911 2.17515 -4.39675 xyz
    dof rx ry rz
  end
  begin
    id 21
    name LeftUpLegDummy
    direction 0.718183 -0.695806 0.00816078
    length 4.904
    axis 0 0 0 xyz
  end
  begin
    id 22
    name LeftUpLeg
    direction 0.0831398 -0.99469 0.0606531
    length 17.4976
    axis -1.71016 2.29552 4.63832 xyz
    dof rx ry rz
  end
  begin
    id 23
    name LeftLeg
    direction 0.0498442 -0.991778 -0.117862
    length 16.5821
    axis 5.13757 15.5727 5.13348 xyz
    dof rx ry rz
  end
  begin
    id 24
    name LeftFoot
    direction 0.269026 -0.433896 0.85986
    length 3.77069
    axis -0.576502 15.6961 4.10267 xyz
    dof rx ry rz
  end
  begin
    id 25
    name LeftToes
    direction 0.277311 0.0251143 0.960452
    length 3.85048
    axis -0.576502 15.6961 4.10267 xyz
    dof rx ry rz
  end
:hierarchy
  begin
    root RightUpLegDummy SpineDummy LeftUpLegDummy
    RightUpLegDummy RightUpLeg
    RightUpLeg RightLeg
    RightLeg RightFoot
    RightFoot RightToes
    SpineDummy Spine
    Spine Spine1
    Spine1 HEadDummy LeftShoulder1Dummy RightShoulderDummy
    HEadDummy HEad
    LeftShoulder1Dummy LeftShoulder1
    LeftShoulder1 LeftArm
    LeftArm LeftForeArm
    LeftForeArm LeftHand
    RightShoulderDummy RightShoulder
    RightShoulder RightArm
    RightArm RightForeArm
    RightForeArm RightHand
    LeftUpLegDummy LeftUpLeg
    LeftUpLeg LeftLeg
    LeftLeg LeftFoot
    LeftFoot LeftToes
  end

:SAMPLES-PER-SECOND 30
:FULLY-SPECIFIED
:DEGREES
62
root  8.39222 38.3649 -82.7092 -0.398259 6.36474 1.43826
RightUpLeg  -19.872 3.52966 2.85432
RightLeg  -1.33574 -7.25574 4.13747
RightFoot  7.93732 -0.899258 4.60536
RightToes  5.82077e-011 -3.18055e-015 -2.98177e-016
Spine  7.91543 -1.4949 -5.38224
Spine1  2.90637 -2.83365 5.91567
HEad  -14.0816 2.42555 -1.12786
LeftShoulder1  -3.88251e-019 9.70628e-020 -3.87848e-018
LeftArm  -13.994 40.8514 -70.7909
LeftForeArm  -9.25356 -21.1342 -2.28088
LeftHand  -0.543383 -1.219 10.2949
RightShoulder  8.28179 10.9479 38.3202
RightArm  15.1746 -49.3762 6.48843
RightForeArm  17.7546 15.1238 -5.09426
RightHand  -1.15693 4.64437 -13.2918
LeftUpLeg  6.40153 -3.67044 -10.7485
LeftLeg  13.9327 5.6962 6.08331
LeftFoot  -20.0458 0.101614 2.56175
LeftToes  7.79675e-011 9.80247e-012 -3.28897e-011
63
root  8.53398 38.162 -81.4499 -0.931648 8.2193 0.791358
RightUpLeg  -18.995 3.8662 3.78882
RightLeg  -2.84165 -6.60947 3.43739
RightFoot  8.63224 -0.0852757 0.273511
RightToes  5.82077e-011 -3.18055e-015 -2.98177e-016
Spine  8.75601 -1.64792 -4.6149
Spine1  3.29576 -3.31196 7.4465
HEad  -14.4104 1.45022 -0.898808
LeftShoulder1  -3.88251e-019 9.70628e-020 -3.87848e-018
LeftArm  -9.10358 41.1296 -72.3203
LeftForeArm  -14.7552 -23.7261 -0.264197
LeftHand  -0.516364 -1.18353 9.84763
RightShoulder  8.34886 10.9749 38.5826
RightArm  14.1135 -49.9828 4.38581
RightForeArm  21.5055 13.3959 -4.521
RightHand  -1.17849 5.13167 -12.9269
LeftUpLeg  8.32442 -3.67095 -9.80647
LeftLeg  15.2146 3.94485 6.3482
LeftFoot  -21.4186 0.0837738 1.94558
LeftToes  7.79675e-011 9.80247e-012 -3.28897e-011
64
root  8.66074 37.9654 -80.1165 -1.82082 9.72569 -0.462058
RightUpLeg  -19.7635 3.98239 5.11691
RightLeg  3.1472 -7.48917 0.876874
RightFoot  10.0178 1.15592 -5.84359
RightToes  5.82077e-011 -3.18055e-015 -2.98177e-016
Spine  9.02592 -1.84988 -2.82907
Spine1  4.71131 -3.6269 8.54119
HEad  -15.875 0.728418 -0.465127
LeftShoulder1  -3.88251e-019 9.70628e-020 -3.87848e-018
LeftArm  -3.64373 42.2559 -73.8165
LeftForeArm  -20.4291 -26.8238 3.02903
LeftHand  -0.527716 -1.49555 9.59236
RightShoulder  8.47367 11.0174 39.0855
RightArm  12.3248 -49.6152 3.67237
RightForeArm  25.0924 10.7347 -4.18454
RightHand  -1.17445 5.10695 -12.9151
LeftUpLeg  9.58692 -2.68491 -7.56334
LeftLeg  18.5392 1.07244 6.48704
LeftFoot  -22.375 -0.0205445 0.540912
LeftToes  7.79675e-011 9.80247e-012 -3.28897e-011
65
root  8.77751 37.821 -78.6944 -2.5282 10.405 -2.62202
RightUpLeg  -20.3597 4.25781 7.24479
RightLeg  9.48149 -8.24273 -1.36605
RightFoot  10.2603 1.65074 -8.15532
RightToes  5.82077e-011 -3.18055e-015 -2.98177e-016
Spine  8.71659 -2.09575 0.29822
Spine1  5.80118 -3.60503 8.8443
HEad  -16.9453 0.640712 0.134448
LeftShoulder1  -3.88251e-019 9.70628e-020 -3.87848e-018
LeftArm  -2.53277 44.9102 -75.1462
LeftForeArm  -21.6395 -29.5722 5.43205
LeftHand  -0.610816 -2.30133 9.89101
RightShoulder  8.57916 11.055 39.5042
RightArm  9.8871 -48.7407 4.50362
RightForeArm  27.8474 6.95058 -4.3487
RightHand  -1.0692 4.7505 -12.1693
LeftUpLeg  9.00527 -0.0239368 -3.44245
LeftLeg  24.7959 -3.33358 6.14346
LeftFoot  -22.1203 -0.295921 -3.06483
LeftToes  7.79675e-011 9.80247e-012 -3.28897e-011
66
root  8.88202 37.7912 -77.2673 -2.54402 10.8026 -4.97908
RightUpLeg  -20.7642 4.675 9.5406
RightLeg  14.1883 -8.76304 -2.97527
RightFoot  6.7169 1.1731 -6.81538
RightToes  5.82077e-011 -3.18055e-015 -2.98177e-016
Spine  8.65634 -2.37235 3.53671
Spine1  4.96697 -3.4431 9.10652
HEad  -15.9418 0.870793 0.778454
LeftShoulder1  -3.88251e-019 9.70628e-020 -3.87848e-018
LeftArm  -5.59578 49.0251 -76.6548
LeftForeArm  -19.6163 -31.1876 5.87504
LeftHand  -0.698468 -3.14764 10.1611
RightShoulder  8.50515 11.0281 39.2112
RightArm  6.9784 -48.4892 6.08538
RightForeArm  29.5976 3.28707 -4.9111
RightHand  -0.879562 4.45287 -10.3275
LeftUpLeg  5.41358 2.14334 0.907899
LeftLeg  34.5107 -7.14897 5.74769
LeftFoot  -17.9955 -0.355418 -7.66566
LeftToes  7.79675e-011 9.80247e-012 -3.28897e-011
67
root  8.97708 37.8819 -75.8804 -2.31976 11.8068 -6.4078
RightUpLeg  -20.2985 4.25966 10.9836
RightLeg  17.1658 -9.00468 -3.86601
RightFoot  1.7349 0.711354 -5.56485
RightToes  5.82077e-011 -3.18055e-015 -2.98177e-016
Spine  9.50463 -2.62663 5.2903
Spine1  2.41165 -3.36158 9.90308
HEad  -13.26 0.595899 1.36307
LeftShoulder1  -3.88251e-019 9.70628e-020 -3.87848e-018
LeftArm  -8.54573 53.3138 -78.7174
LeftForeArm  -19.9617 -30.9634 5.81202
LeftHand  -0.6694 -3.33425 9.52063
RightShoulder  8.24682 10.9348 38.18
RightArm  5.09996 -49.3067 7.46379
RightForeArm  28.8349 1.69294 -5.44387
RightHand  -0.663366 3.95711 -8.21603
LeftUpLeg  -0.745897 2.22485 3.47445
LeftLeg  46.2049 -8.76171 6.39645
LeftFoot  -7.3273 0.403692 -9.16224
LeftToes  7.79675e-011 9.80247e-012 -3.28897e-011
68
root  9.07786 37.9653 -74.5307 -2.71262 13.3676 -6.85411
RightUpLeg  -18.5427 3.28909 11.4744
RightLeg  19.1395 -9.4504 -4.48837
RightFoot  -1.73085 0.531921 -5.30882
RightToes  5.82077e-011 -3.18055e-015 -2.98177e-016
Spine  10.7974 -2.78445 6.07607
Spine1  0.348096 -3.22282 10.6178
HEad  -10.9423 -0.589966 1.80851
LeftShoulder1  -3.88251e-019 9.70628e-020 -3.87848e-018
LeftArm  -10.8528 56.2542 -80.7247
LeftForeArm  -22.3902 -29.2822 5.12142
LeftHand  -0.546351 -2.95416 8.17684
RightShoulder  8.04408 10.8618 37.3583
RightArm  5.28854 -50.1352 7.97815
RightForeArm  25.2522 3.03902 -5.33485
RightHand  -0.524542 3.22628 -7.06233
LeftUpLeg  -7.69702 1.14098 4.42043
LeftLeg  57.0979 -9.08076 8.61941
LeftFoot  7.58695 1.19677 -6.54183
LeftToes  7.79675e-011 9.80247e-012 -3.28897e-011
69
root  9.21175 37.9901 -73.1871 -3.64184 14.552 -7.03901
RightUpLeg  -16.1558 2.38662 11.9227
RightLeg  20.8497 -9.59426 -5.42443
RightFoot  -4.29145 0.353772 -4.39578
RightToes  5.82077e-011 -3.18055e-015 -2.98177e-016
Spine  11.2221 -2.67996 7.49848
Spine1  0.487136 -2.71806 10.1722
HEad  -10.1521 -2.28694 2.13274
LeftShoulder1  -3.88251e-019 9.70628e-020 -3.87848e-018
LeftArm  -13.9983 57.5301 -81.6205
LeftForeArm  -23.3156 -26.8436 3.21259
LeftHand  -0.496286 -3.00119 7.41252
RightShoulder  8.09656 10.8801 37.572
RightArm  6.74912 -49.5922 8.00269
RightForeArm  21.0723 6.17617 -4.74528
RightHand  -0.568151 3.08449 -7.72757
LeftUpLeg  -13.8015 0.810761 4.82324
LeftLeg  64.8691 -8.79407 12.6813
LeftFoot  19.2097 1.04023 -3.36615
LeftToes  7.79675e-011 9.80247e-012 -3.28897e-011
70
root  9.39662 38.0609 -71.7878 -4.23413 14.8147 -7.00572
RightUpLeg  -13.699 1.98384 12.372
RightLeg  21.9693 -9.21643 -6.33197
RightFoot  -7.36496 0.153989 -2.62754
RightToes  5.82077e-011 -3.18055e-015 -2.98177e-016
Spine  10.1488 -2.19183 9.4673
Spine1  2.13773 -1.77425 8.23084
HEad  -10.1824 -3.91275 2.48683
LeftShoulder1  -3.88251e-019 9.70628e-020 -3.87848e-018
LeftArm  -19.994 58.0714 -81.1297
LeftForeArm  -19.872 -23.931 0.288345
LeftHand  -0.608328 -3.82489 8.19775
RightShoulder  8.32224 10.9683 38.4696
RightArm  7.8305 -47.6165 8.70577
RightForeArm  18.6755 9.19311 -4.21053
RightHand  -0.817153 3.73823 -10.2995
LeftUpLeg  -18.6596 1.94574 4.6695
LeftLeg  68.8084 -8.10748 17.8848
LeftFoot  21.6201 0.314146 -0.746271
LeftToes  7.79675e-011 9.80247e-012 -3.28897e-011
71
root  9.63224 38.1242 -70.3749 -4.17322 14.459 -6.70764
RightUpLeg  -11.6062 1.65427 12.5382
RightLeg  22.7997 -8.37556 -6.86247
RightFoot  -10.5506 0.0608263 -1.43446
RightToes  5.82077e-011 -3.18055e-015 -2.98177e-016
Spine  8.96291 -1.54897 11.5612
Spine1  2.99863 -0.591973 5.43668
HEad  -9.92227 -5.31068 2.97382
LeftShoulder1  -3.88251e-019 9.70628e-020 -3.87848e-018
LeftArm  -26.8264 59.0263 -80.0384
LeftForeArm  -15.7466 -20.8386 -1.62537
LeftHand  -0.829783 -4.3446 10.5369
RightShoulder  8.40895 10.9958 38.8246
RightArm  8.46985 -45.6505 10.5
RightForeArm  17.6789 11.6377 -3.96085
RightHand  -1.12792 4.06688 -13.7477
LeftUpLeg  -22.7819 3.44154 3.86751
LeftLeg  69.7121 -7.64192 20.6757
LeftFoot  15.5846 -0.134287 0.670223
LeftToes  7.79675e-011 9.80247e-012 -3.28897e-011
72
root  9.89456 38.1177 -68.9885 -3.99807 13.8476 -6.32904
RightUpLeg  -9.54548 1.10167 12.4421
RightLeg  23.4697 -7.23116 -6.97708
RightFoot  -12.94 0.040635 -1.12836
RightToes  5.82077e-011 -3.18055e-015 -2.98177e-016
Spine  8.50852 -0.944627 13.5468
Spine1  2.49199 0.541541 2.61661
HEad  -9.15671 -6.59066 3.50011
LeftShoulder1  -3.88251e-019 9.70628e-020 -3.87848e-018
LeftArm  -31.8578 60.5257 -78.8498
LeftForeArm  -14.9298 -17.9542 -2.03586
LeftHand  -0.973495 -3.64673 13.2933
RightShoulder  8.31806 10.9593 38.4693
RightArm  9.67871 -44.0253 12.9377
RightForeArm  15.8746 13.7284 -4.1027
RightHand  -1.27114 3.64963 -16.1277
LeftUpLeg  -26.3717 4.38222 2.97363
LeftLeg  68.2162 -7.4088 19.6066
LeftFoot  8.3668 -0.120994 0.76583
LeftToes  7.79675e-011 9.80247e-012 -3.28897e-011
73
root  10.1445 38.1482 -67.5971 -4.08849 13.0271 -5.7621
RightUpLeg  -6.75352 0.595614 12.0684
RightLeg  23.2198 -5.98919 -6.68273
RightFoot  -14.7661 0.03776 -0.637474
RightToes  5.82077e-011 -3.18055e-015 -2.98177e-016
Spine  8.43325 -0.240683 14.8625
Spine1  1.85464 1.62099 -0.0301149
HEad  -8.52928 -7.86553 4.01823
LeftShoulder1  -3.88251e-019 9.70628e-020 -3.87848e-018
LeftArm  -34.2174 61.7851 -77.379
LeftForeArm  -17.1941 -14.9606 -1.7454
LeftHand  -0.897035 -2.19416 14.6154
RightShoulder  8.18813 10.9077 37.957
RightArm  11.8987 -42.2391 15.4807
RightForeArm  12.2466 15.7815 -4.82506
RightHand  -1.25704 3.47639 -16.2479
LeftUpLeg  -28.8495 5.12915 2.04307
LeftLeg  63.8663 -6.45381 17.7439
LeftFoot  4.77886 -0.121913 0.852875
LeftToes  7.79675e-011 9.80247e-012 -3.28897e-011
74
root  10.3916 38.2083 -66.1848 -4.17594 12.1129 -4.94452
RightUpLeg  -3.64978 0.176231 11.3796
RightLeg  22.4405 -4.68108 -6.31194
RightFoot  -16.8181 0.0641122 0.358747
RightToes  5.82077e-011 -3.18055e-015 -2.98177e-016
Spine  8.0967 0.53478 15.4315
Spine1  1.75219 2.58922 -2.2948
HEad  -8.17697 -8.93773 4.36589
LeftShoulder1  -3.88251e-019 9.70628e-020 -3.87848e-018
LeftArm  -34.2647 62.5553 -75.2241
LeftForeArm  -19.2397 -11.412 -1.43649
LeftHand  -0.664896 -0.697101 13.6318
RightShoulder  8.1263 10.8829 37.7118
RightArm  14.4954 -39.8298 17.7643
RightForeArm  8.28186 17.4058 -5.90848
RightHand  -1.23137 4.04917 -14.9925
LeftUpLeg  -29.6499 6.14588 0.913827
LeftLeg  55.9978 -4.07535 16.629
LeftFoot  3.01889 0.0493252 -0.308451
LeftToes  7.79675e-011 9.80247e-012 -3.28897e-011
75
root  10.6783 38.2542 -64.7428 -3.76358 11.2394 -3.84828
RightUpLeg  -0.816258 -0.288568 10.2016
RightLeg  21.3879 -3.39966 -5.84681
RightFoot  -18.6369 0.0988224 0.866324
RightToes  5.82077e-011 -3.18055e-015 -2.98177e-016
Spine  7.10011 1.27172 15.4521
Spine1  1.88188 3.31682 -4.31734
HEad  -7.7536 -9.55145 4.41943
LeftShoulder1  -3.88251e-019 9.70628e-020 -3.87848e-018
LeftArm  -33.0085 63.2479 -72.3549
LeftForeArm  -17.6945 -7.54402 -1.37132
LeftHand  -0.434606 0.576643 11.4954
RightShoulder  8.08597 10.8665 37.5517
RightArm  15.9047 -37.1161 19.9965
RightForeArm  6.32976 18.2085 -6.64969
RightHand  -1.22737 4.57551 -14.1746
LeftUpLeg  -28.977 7.27482 -0.443083
LeftLeg  44.2698 -1.21723 14.1223
LeftFoot  2.24793 0.362524 -2.62095
LeftToes  7.79675e-011 9.80247e-012 -3.28897e-011
76
root  10.9836 38.394 -63.3142 -2.71093 10.274 -2.34906
RightUpLeg  2.04305 -0.558151 8.41295
RightLeg  18.8359 -2.3312 -4.86442
RightFoot  -19.1213 0.095582 0.677938
RightToes  5.82077e-011 -3.18055e-015 -2.98177e-016
Spine  5.8069 1.94308 14.7178
Spine1  1.85348 3.88608 -6.63725
HEad  -6.98914 -9.66028 4.17119
LeftShoulder1  -3.88251e-019 9.70628e-020 -3.87848e-018
LeftArm  -30.7451 64.4561 -69.1538
LeftForeArm  -12.7178 -4.27678 -1.47035
LeftHand  -0.30257 1.40796 9.81417
RightShoulder  7.99543 10.827 37.1969
RightArm  15.9409 -34.7741 22.3412
RightForeArm  6.32843 18.4474 -6.92699
RightHand  -1.22141 4.48078 -14.2414
LeftUpLeg  -27.025 7.79529 -2.07492
LeftLeg  28.6851 0.0474776 9.27084
LeftFoot  3.09712 0.486956 -3.36944
LeftToes  7.79675e-011 9.80247e-012 -3.28897e-011
